<mxfile host="app.diagrams.net" modified="2023-11-24T14:33:32.028Z" agent="Mozilla/5.0 (Macintosh; Intel Mac OS X 10_15_7) AppleWebKit/605.1.15 (KHTML, like Gecko) Version/16.6 Safari/605.1.15" etag="vA_wUEaw0xiMr_o-VZtZ" version="22.1.3" type="github">
  <diagram name="Page-1" id="_hA_Yiao_eVFl8C4lTkQ">
    <mxGraphModel dx="1434" dy="827" grid="1" gridSize="10" guides="1" tooltips="1" connect="1" arrows="1" fold="1" page="1" pageScale="1" pageWidth="3200" pageHeight="5500" math="0" shadow="0">
      <root>
        <mxCell id="0" />
        <mxCell id="1" parent="0" />
        <mxCell id="bCzOhG7pp7HXEja0eVIu-1" style="edgeStyle=orthogonalEdgeStyle;rounded=0;orthogonalLoop=1;jettySize=auto;html=1;exitX=1;exitY=0.5;exitDx=0;exitDy=0;strokeWidth=4;strokeColor=#FF0000;" edge="1" parent="1" source="bCzOhG7pp7HXEja0eVIu-3">
          <mxGeometry relative="1" as="geometry">
            <mxPoint x="750" y="444" as="targetPoint" />
          </mxGeometry>
        </mxCell>
        <mxCell id="bCzOhG7pp7HXEja0eVIu-3" value="&lt;font style=&quot;font-size: 14px;&quot;&gt;&lt;b&gt;Discriminator&lt;/b&gt;&lt;/font&gt;" style="triangle;whiteSpace=wrap;html=1;fillColor=#fff2cc;strokeColor=#d6b656;gradientColor=#ffd966;" vertex="1" parent="1">
          <mxGeometry x="635" y="367" width="100" height="80" as="geometry" />
        </mxCell>
        <mxCell id="bCzOhG7pp7HXEja0eVIu-4" value="&lt;b&gt;&lt;font style=&quot;font-size: 14px;&quot;&gt;Generator&lt;/font&gt;&lt;/b&gt;" style="rhombus;whiteSpace=wrap;html=1;fillColor=#d5e8d4;strokeColor=#82b366;gradientColor=#97d077;" vertex="1" parent="1">
          <mxGeometry x="490" y="479" width="80" height="80" as="geometry" />
        </mxCell>
        <mxCell id="bCzOhG7pp7HXEja0eVIu-5" style="edgeStyle=orthogonalEdgeStyle;rounded=0;orthogonalLoop=1;jettySize=auto;html=1;entryX=0;entryY=0.5;entryDx=0;entryDy=0;strokeWidth=4;fillColor=#f8cecc;strokeColor=#FF0000;" edge="1" parent="1" source="bCzOhG7pp7HXEja0eVIu-6" target="bCzOhG7pp7HXEja0eVIu-4">
          <mxGeometry relative="1" as="geometry">
            <Array as="points">
              <mxPoint x="490" y="460" />
            </Array>
          </mxGeometry>
        </mxCell>
        <mxCell id="bCzOhG7pp7HXEja0eVIu-6" value="&lt;font style=&quot;font-size: 15px;&quot;&gt;&lt;b&gt;noise&lt;/b&gt;&lt;/font&gt;" style="text;html=1;align=center;verticalAlign=middle;resizable=0;points=[];autosize=1;strokeColor=none;fillColor=none;" vertex="1" parent="1">
          <mxGeometry x="447" y="436" width="60" height="30" as="geometry" />
        </mxCell>
        <mxCell id="bCzOhG7pp7HXEja0eVIu-7" style="edgeStyle=orthogonalEdgeStyle;rounded=0;orthogonalLoop=1;jettySize=auto;html=1;entryX=0;entryY=0.75;entryDx=0;entryDy=0;strokeWidth=4;fillColor=#f8cecc;strokeColor=#FF0000;" edge="1" parent="1" target="bCzOhG7pp7HXEja0eVIu-3">
          <mxGeometry relative="1" as="geometry">
            <Array as="points">
              <mxPoint x="595" y="427" />
            </Array>
            <mxPoint x="595" y="459" as="sourcePoint" />
          </mxGeometry>
        </mxCell>
        <mxCell id="bCzOhG7pp7HXEja0eVIu-8" value="&lt;font style=&quot;font-size: 14px;&quot;&gt;&lt;b&gt;fake data&lt;/b&gt;&lt;/font&gt;" style="text;html=1;align=center;verticalAlign=middle;resizable=0;points=[];autosize=1;strokeColor=none;fillColor=none;" vertex="1" parent="1">
          <mxGeometry x="555" y="456" width="80" height="30" as="geometry" />
        </mxCell>
        <mxCell id="bCzOhG7pp7HXEja0eVIu-9" value="&lt;font style=&quot;font-size: 14px;&quot;&gt;&lt;b&gt;real data space&lt;/b&gt;&lt;/font&gt;" style="text;html=1;align=center;verticalAlign=middle;resizable=0;points=[];autosize=1;strokeColor=none;fillColor=none;" vertex="1" parent="1">
          <mxGeometry x="461" y="324" width="120" height="30" as="geometry" />
        </mxCell>
        <mxCell id="bCzOhG7pp7HXEja0eVIu-10" style="edgeStyle=orthogonalEdgeStyle;rounded=0;orthogonalLoop=1;jettySize=auto;html=1;entryX=0;entryY=0.5;entryDx=0;entryDy=0;strokeWidth=4;fillColor=#f8cecc;strokeColor=#FF0000;" edge="1" parent="1" target="bCzOhG7pp7HXEja0eVIu-3">
          <mxGeometry relative="1" as="geometry">
            <mxPoint x="670" y="407" as="targetPoint" />
            <Array as="points">
              <mxPoint x="590" y="407" />
              <mxPoint x="590" y="407" />
            </Array>
            <mxPoint x="570" y="407" as="sourcePoint" />
          </mxGeometry>
        </mxCell>
        <mxCell id="bCzOhG7pp7HXEja0eVIu-11" value="&lt;font style=&quot;font-size: 14px;&quot;&gt;&lt;b&gt;real data&lt;/b&gt;&lt;/font&gt;" style="text;html=1;align=center;verticalAlign=middle;resizable=0;points=[];autosize=1;strokeColor=none;fillColor=none;" vertex="1" parent="1">
          <mxGeometry x="490" y="378" width="80" height="30" as="geometry" />
        </mxCell>
        <mxCell id="bCzOhG7pp7HXEja0eVIu-12" value="&lt;font color=&quot;#ff0000&quot; style=&quot;font-size: 20px;&quot;&gt;&lt;b&gt;which is &lt;br&gt;real/fake?&lt;/b&gt;&lt;/font&gt;" style="text;html=1;align=center;verticalAlign=middle;resizable=0;points=[];autosize=1;strokeColor=none;fillColor=none;" vertex="1" parent="1">
          <mxGeometry x="695" y="435" width="120" height="60" as="geometry" />
        </mxCell>
        <mxCell id="bCzOhG7pp7HXEja0eVIu-13" style="edgeStyle=orthogonalEdgeStyle;rounded=0;orthogonalLoop=1;jettySize=auto;html=1;exitX=1;exitY=0.5;exitDx=0;exitDy=0;entryX=0.5;entryY=1.1;entryDx=0;entryDy=0;entryPerimeter=0;strokeWidth=4;strokeColor=#FF0000;" edge="1" parent="1">
          <mxGeometry relative="1" as="geometry">
            <mxPoint x="570" y="532" as="sourcePoint" />
            <mxPoint x="595" y="489" as="targetPoint" />
          </mxGeometry>
        </mxCell>
        <mxCell id="bCzOhG7pp7HXEja0eVIu-14" style="edgeStyle=orthogonalEdgeStyle;rounded=0;orthogonalLoop=1;jettySize=auto;html=1;entryX=0.388;entryY=-0.1;entryDx=0;entryDy=0;entryPerimeter=0;strokeColor=#FF0000;strokeWidth=4;" edge="1" parent="1">
          <mxGeometry relative="1" as="geometry">
            <mxPoint x="521" y="355" as="sourcePoint" />
            <mxPoint x="521.04" y="384" as="targetPoint" />
          </mxGeometry>
        </mxCell>
      </root>
    </mxGraphModel>
  </diagram>
</mxfile>
